<?xml version="1.0" encoding="UTF-8"?>
<svg version="1.1" xmlns="http://www.w3.org/2000/svg" width="500" height="500">
<path d="M0 0 C165 0 330 0 500 0 C500 165 500 330 500 500 C335 500 170 500 0 500 C0 335 0 170 0 0 Z " fill="#FEFEFE" transform="translate(0,0)"/>
<path d="M0 0 C0.33 -0.33 0.66 -0.66 1 -1 C3.4375 -1.1875 3.4375 -1.1875 6 -1 C8.90441659 1.90441659 8.25867736 4.06757845 8.265625 8.125 C8.26849518 9.17905029 8.26849518 9.17905029 8.27142334 10.25439453 C8.27278475 11.74056354 8.26909132 13.22674445 8.26074219 14.71289062 C8.25004154 16.99115646 8.26063839 19.26863377 8.2734375 21.546875 C8.2721159 22.98958508 8.26955349 24.43229466 8.265625 25.875 C8.26336914 27.19242187 8.26111328 28.50984375 8.25878906 29.8671875 C8 33 8 33 6 35 C3.4506556 35.20126403 1.44655037 35.13954699 -1 34.375 C-3.08623758 33.79469352 -3.08623758 33.79469352 -5.25 34.9375 C-10.54995622 36.98521036 -14.57016306 36.58162859 -19.6875 34.5 C-23.77590311 31.78064931 -26.37497004 28.65316949 -28 24 C-28.92109693 17.5747873 -29.20408667 11.17020691 -25.9375 5.375 C-19.33471141 -3.21969129 -9.7434124 -4.10248943 0 0 Z " fill="#0D0D0D" transform="translate(344,238)"/>
<path d="M0 0 C3.7229703 2.6592645 6.55543557 5.73587115 8.625 9.875 C8.72084979 11.7271563 8.75483606 13.58287153 8.75 15.4375 C8.75386719 16.92443359 8.75386719 16.92443359 8.7578125 18.44140625 C8.625 20.875 8.625 20.875 7.625 21.875 C5.69832493 21.96248207 3.76848139 21.98197334 1.83984375 21.97265625 C0.67001953 21.96943359 -0.49980469 21.96621094 -1.70507812 21.96289062 C-2.93677734 21.95451172 -4.16847656 21.94613281 -5.4375 21.9375 C-7.29084961 21.93073242 -7.29084961 21.93073242 -9.18164062 21.92382812 C-12.24614117 21.91199608 -15.31054721 21.89551173 -18.375 21.875 C-16.50933512 25.50293998 -16.50933512 25.50293998 -13.375 27.875 C-11.73244209 27.99614921 -10.08447522 28.05040767 -8.4375 28.0625 C-7.12458984 28.08376953 -7.12458984 28.08376953 -5.78515625 28.10546875 C-3.11255665 28.04163349 -3.11255665 28.04163349 -0.375 25.875 C2.25 25.6875 2.25 25.6875 4.625 25.875 C5.625 26.875 5.625 26.875 5.6875 29.4375 C5.666875 30.241875 5.64625 31.04625 5.625 31.875 C-0.89239662 35.68706217 -5.70042534 37.7691252 -13.375 36.875 C-19.72692977 34.8245525 -23.3228809 31.46620843 -26.625 25.6875 C-28.41896111 18.96014585 -28.11997919 12.72894028 -24.65234375 6.6328125 C-18.66122314 -1.61184888 -9.38986163 -3.12995388 0 0 Z " fill="#0D0D0D" transform="translate(267.375,237.125)"/>
<path d="M0 0 C4.53002818 3.1278766 6.86869627 6.65749334 8.625 11.8125 C8.88378906 14.36791992 8.88378906 14.36791992 8.890625 17.04296875 C8.89449219 18.49413086 8.89449219 18.49413086 8.8984375 19.97460938 C8.89070313 20.97298828 8.88296875 21.97136719 8.875 23 C8.88660156 24.5149707 8.88660156 24.5149707 8.8984375 26.06054688 C8.89585937 27.02412109 8.89328125 27.98769531 8.890625 28.98046875 C8.88836914 29.85985107 8.88611328 30.7392334 8.88378906 31.64526367 C8.625 33.8125 8.625 33.8125 6.625 35.8125 C4.125 36.0625 4.125 36.0625 1.625 35.8125 C-0.927725 33.259775 -0.6478358 32.23497668 -0.71875 28.69140625 C-0.74839844 27.67369141 -0.77804688 26.65597656 -0.80859375 25.60742188 C-0.83050781 24.54072266 -0.85242188 23.47402344 -0.875 22.375 C-0.91836211 20.27193751 -0.97007321 18.16902593 -1.03125 16.06640625 C-1.04994141 15.13127197 -1.06863281 14.1961377 -1.08789062 13.23266602 C-1.22047924 10.55372931 -1.22047924 10.55372931 -3.375 7.8125 C-8.23962994 6.59634252 -10.22382052 6.23691026 -14.75 8.5 C-17.78896564 11.17718401 -19.14119198 13.05752686 -19.67797852 17.08666992 C-19.70303467 17.89724854 -19.72809082 18.70782715 -19.75390625 19.54296875 C-19.78806641 20.42791016 -19.82222656 21.31285156 -19.85742188 22.22460938 C-19.88384766 23.14048828 -19.91027344 24.05636719 -19.9375 25 C-19.99717146 26.8269625 -20.06075705 28.65380284 -20.12890625 30.48046875 C-20.15283447 31.28766357 -20.1767627 32.0948584 -20.20141602 32.92651367 C-20.375 34.8125 -20.375 34.8125 -21.375 35.8125 C-23.8125 36 -23.8125 36 -26.375 35.8125 C-29.27941659 32.90808341 -28.63367736 30.74492155 -28.640625 26.6875 C-28.64253845 25.9847998 -28.6444519 25.28209961 -28.64642334 24.55810547 C-28.64778475 23.07193646 -28.64409132 21.58575555 -28.63574219 20.09960938 C-28.62504154 17.82134354 -28.63563839 15.54386623 -28.6484375 13.265625 C-28.6471159 11.82291492 -28.64455349 10.38020534 -28.640625 8.9375 C-28.63836914 7.62007812 -28.63611328 6.30265625 -28.63378906 4.9453125 C-28.375 1.8125 -28.375 1.8125 -26.375 -0.1875 C-23.75 -0.3125 -23.75 -0.3125 -21.375 -0.1875 C-21.045 0.8025 -20.715 1.7925 -20.375 2.8125 C-19.42625 2.1525 -18.4775 1.4925 -17.5 0.8125 C-11.84505793 -2.41070227 -6.01919807 -2.11786599 0 0 Z " fill="#0E0E0E" transform="translate(226.375,237.1875)"/>
<path d="M0 0 C1.0186338 -0.00074776 1.0186338 -0.00074776 2.05784607 -0.00151062 C3.49098645 0.00082672 4.92413118 0.01053539 6.35717773 0.02709961 C8.55424544 0.05073447 10.75010275 0.04765358 12.94726562 0.04101562 C23.71694742 0.08413492 23.71694742 0.08413492 25.99609375 2.36328125 C25.66609375 4.01328125 25.33609375 5.66328125 24.99609375 7.36328125 C16.08609375 7.36328125 7.17609375 7.36328125 -2.00390625 7.36328125 C-2.00390625 12.31328125 -2.00390625 17.26328125 -2.00390625 22.36328125 C0.66832031 22.32847656 0.66832031 22.32847656 3.39453125 22.29296875 C5.72004791 22.27421458 8.04556908 22.25601401 10.37109375 22.23828125 C11.54671875 22.22152344 12.72234375 22.20476562 13.93359375 22.1875 C15.61582031 22.17783203 15.61582031 22.17783203 17.33203125 22.16796875 C18.3689209 22.15749512 19.40581055 22.14702148 20.47412109 22.13623047 C22.99609375 22.36328125 22.99609375 22.36328125 24.99609375 24.36328125 C24.66609375 25.68328125 24.33609375 27.00328125 23.99609375 28.36328125 C15.41609375 28.36328125 6.83609375 28.36328125 -2.00390625 28.36328125 C-1.9248733 33.53902927 -1.9248733 33.53902927 -1.82373047 38.71435547 C-1.80913408 40.59823174 -1.90447143 42.48197437 -2.00390625 44.36328125 C-2.66390625 45.02328125 -3.32390625 45.68328125 -4.00390625 46.36328125 C-8.55946181 45.80772569 -8.55946181 45.80772569 -10.00390625 44.36328125 C-10.12990977 41.36859761 -10.19259972 38.39825345 -10.20703125 35.40234375 C-10.21273132 34.50083588 -10.2184314 33.599328 -10.2243042 32.67050171 C-10.2337695 30.7588621 -10.24029423 28.84720605 -10.24414062 26.93554688 C-10.25384249 24.00752321 -10.28484967 21.08020235 -10.31640625 18.15234375 C-10.32293633 16.29818127 -10.32818678 14.44401375 -10.33203125 12.58984375 C-10.34437805 11.71163971 -10.35672485 10.83343567 -10.3694458 9.92861938 C-10.3664447 9.11122284 -10.3634436 8.29382629 -10.36035156 7.45166016 C-10.36399719 6.7329776 -10.36764282 6.01429504 -10.37139893 5.27383423 C-9.29216132 -0.3370004 -4.84050245 -0.01135908 0 0 Z " fill="#060606" transform="translate(156.00390625,226.63671875)"/>
<path d="M0 0 C2.16796875 -0.3125 2.16796875 -0.3125 5 0 C7.67578125 2.1875 7.67578125 2.1875 10.3125 5 C11.19550781 5.928125 12.07851563 6.85625 12.98828125 7.8125 C13.65214844 8.534375 14.31601562 9.25625 15 10 C19.33987991 8.16352521 21.80927021 5.13556688 24.90234375 1.6796875 C27.45958474 -0.36801012 28.80542575 -0.34445844 32 0 C32.83984375 2.10546875 32.83984375 2.10546875 33 5 C31.24987311 7.36015419 29.62120097 9.26375647 27.5625 11.3125 C26.76875977 12.13717773 26.76875977 12.13717773 25.95898438 12.97851562 C24.65261199 14.33196449 23.32799243 15.667758 22 17 C24.78598212 20.85825015 27.41323287 24.4631705 30.9375 27.6875 C31.618125 28.450625 32.29875 29.21375 33 30 C32.8125 32.8125 32.8125 32.8125 32 35 C29.83203125 35.83984375 29.83203125 35.83984375 27 36 C24.93440523 34.21785911 23.38694624 32.64463635 21.6875 30.5625 C21.0059082 29.76875977 21.0059082 29.76875977 20.31054688 28.95898438 C19.19199428 27.65204398 18.09394635 26.32760479 17 25 C13.57097544 26.43000806 11.88100297 28.14452432 9.625 31.0625 C7.18250225 33.96823008 6.34604324 34.89106046 2.625 36.0625 C0 36 0 36 -1 35 C-1.40625 32.83203125 -1.40625 32.83203125 -1 30 C0.77526418 27.70310787 2.4758999 25.73397959 4.5 23.6875 C5.02464844 23.13771484 5.54929687 22.58792969 6.08984375 22.02148438 C7.38221566 20.67036829 8.68968073 19.33371783 10 18 C9.62488281 17.56429687 9.24976563 17.12859375 8.86328125 16.6796875 C7.7948155 15.43628403 6.7312926 14.18862173 5.671875 12.9375 C4.6263253 11.72583493 3.55657645 10.53418132 2.453125 9.375 C1.0625 7.875 1.0625 7.875 -1 5 C-0.8125 2.125 -0.8125 2.125 0 0 Z " fill="#080808" transform="translate(281,237)"/>
<path d="M0 0 C7.88238399 0.01885738 15.6663793 0.41340537 23.515625 1.1328125 C23.7758396 20.93803476 23.7758396 20.93803476 22.515625 26.1328125 C19.515625 28.1328125 19.515625 28.1328125 16.890625 27.8203125 C14.515625 27.1328125 14.515625 27.1328125 13.515625 26.1328125 C13.3828125 24.34765625 13.3828125 24.34765625 13.390625 22.0703125 C13.38675781 20.97009766 13.38675781 20.97009766 13.3828125 19.84765625 C13.55924119 16.24124633 14.03841062 12.71192036 14.515625 9.1328125 C13.31164062 9.16761719 12.10765625 9.20242187 10.8671875 9.23828125 C9.29168058 9.2664153 7.71615862 9.29371587 6.140625 9.3203125 C5.3465625 9.34544922 4.5525 9.37058594 3.734375 9.39648438 C1.65976352 9.42285655 -0.41538365 9.28767712 -2.484375 9.1328125 C-4.484375 6.1328125 -4.484375 6.1328125 -4.171875 3.5078125 C-3.20606954 0.17139365 -3.20606954 0.17139365 0 0 Z " fill="#1FCC99" transform="translate(375.484375,206.8671875)"/>
<path d="M0 0 C1.12148438 0.04833984 2.24296875 0.09667969 3.3984375 0.14648438 C5.161875 0.2305957 5.161875 0.2305957 6.9609375 0.31640625 C8.14429688 0.36861328 9.32765625 0.42082031 10.546875 0.47460938 C13.47681311 0.60456631 16.40643423 0.73954153 19.3359375 0.87890625 C19.22645644 5.00447315 19.09573525 9.12909503 18.9609375 13.25390625 C18.91453125 15.01734375 18.91453125 15.01734375 18.8671875 16.81640625 C18.82851563 17.93789062 18.78984375 19.059375 18.75 20.21484375 C18.7185791 21.2517334 18.6871582 22.28862305 18.65478516 23.35693359 C18.3359375 25.87890625 18.3359375 25.87890625 16.3359375 27.87890625 C13.2734375 28.06640625 13.2734375 28.06640625 10.3359375 27.87890625 C9.3359375 26.87890625 9.3359375 26.87890625 9.203125 25.12890625 C9.22218766 19.6388608 9.64423954 14.32602767 10.3359375 8.87890625 C9.13195312 8.90210938 7.92796875 8.9253125 6.6875 8.94921875 C5.11198535 8.96797488 3.53646402 8.98617524 1.9609375 9.00390625 C1.166875 9.02066406 0.3728125 9.03742188 -0.4453125 9.0546875 C-2.51898265 9.07226098 -4.59289491 8.98225793 -6.6640625 8.87890625 C-7.3240625 8.21890625 -7.9840625 7.55890625 -8.6640625 6.87890625 C-8.4140625 3.81640625 -8.4140625 3.81640625 -7.6640625 0.87890625 C-4.96635992 -0.46994504 -3.01132875 -0.13687858 0 0 Z " fill="#1ECC99" transform="translate(365.6640625,220.12109375)"/>
<path d="M0 0 C2.83984375 2.44921875 2.83984375 2.44921875 3.53125 6.015625 C3.48871094 7.33433594 3.44617188 8.65304688 3.40234375 10.01171875 C3.40041016 10.68396484 3.39847656 11.35621094 3.39648438 12.04882812 C3.31833154 14.96363957 3.19219257 16.97388945 1.4296875 19.3515625 C-2.53366077 22.08792826 -6.47404397 22.26524865 -11.16015625 21.44921875 C-14.64000381 18.75056146 -15.85527402 17.30515235 -16.5625 13 C-16.74527976 8.10881366 -16.50330594 4.26996125 -13.16015625 0.44921875 C-8.85396435 -2.66905814 -4.6233426 -2.26880966 0 0 Z " fill="#FAFAFA" transform="translate(340.16015625,244.55078125)"/>
<path d="M0 0 C2.5625 0.1875 2.5625 0.1875 4.5625 2.1875 C4.82128906 5.3203125 4.82128906 5.3203125 4.828125 9.3125 C4.83003845 10.0152002 4.8319519 10.71790039 4.83392334 11.44189453 C4.83528475 12.92806354 4.83159132 14.41424445 4.82324219 15.90039062 C4.81254154 18.17865646 4.82313839 20.45613377 4.8359375 22.734375 C4.8346159 24.17708508 4.83205349 25.61979466 4.828125 27.0625 C4.82586914 28.37992187 4.82361328 29.69734375 4.82128906 31.0546875 C4.5625 34.1875 4.5625 34.1875 2.5625 36.1875 C0 36.375 0 36.375 -2.4375 36.1875 C-4.1704298 34.4545702 -3.56570046 32.22535664 -3.57644653 29.91601562 C-3.5744223 29.18060547 -3.57239807 28.44519531 -3.5703125 27.6875 C-3.57126923 26.93662109 -3.57222595 26.18574219 -3.57321167 25.41210938 C-3.57389338 23.82161373 -3.57203972 22.23111533 -3.56787109 20.640625 C-3.56252267 18.19785345 -3.56781634 15.75526579 -3.57421875 13.3125 C-3.57355797 11.77083293 -3.5722768 10.22916597 -3.5703125 8.6875 C-3.57233673 7.95208984 -3.57436096 7.21667969 -3.57644653 6.45898438 C-3.54766077 0.27289698 -3.54766077 0.27289698 0 0 Z " fill="#0C0C0C" transform="translate(189.4375,236.8125)"/>
<path d="M0 0 C0.66 0 1.32 0 2 0 C2.19644384 1.89492746 2.38177288 3.79100903 2.5625 5.6875 C2.66691406 6.74324219 2.77132812 7.79898437 2.87890625 8.88671875 C2.99277552 11.81426086 2.70848415 14.17131144 2 17 C1.34 17 0.68 17 0 17 C-0.33 16.01 -0.66 15.02 -1 14 C-1.37125 14.495 -1.7425 14.99 -2.125 15.5 C-4 17 -4 17 -7 17.375 C-10 17 -10 17 -11.875 15.875 C-13.52854531 13.11909116 -13.39365568 11.14924548 -13 8 C-11.875 6.125 -11.875 6.125 -10 5 C-6.90498792 4.74734595 -4.79870027 4.60064987 -2 6 C-2 6.66 -2 7.32 -2 8 C-1.34 8 -0.68 8 0 8 C0 5.36 0 2.72 0 0 Z " fill="#B8B8B8" transform="translate(208,284)"/>
<path d="M0 0 C1.7325 0.12375 1.7325 0.12375 3.5 0.25 C4.49 0.25 5.48 0.25 6.5 0.25 C6.5 4.21 6.5 8.17 6.5 12.25 C5.51 12.25 4.52 12.25 3.5 12.25 C2.489375 12.270625 1.47875 12.29125 0.4375 12.3125 C-2.5 12.25 -2.5 12.25 -4.5 11.25 C-4.5 10.59 -4.5 9.93 -4.5 9.25 C-6.15 9.91 -7.8 10.57 -9.5 11.25 C-9.5 9.27 -9.5 7.29 -9.5 5.25 C-8.51 4.92 -7.52 4.59 -6.5 4.25 C-6.0875 3.569375 -5.675 2.88875 -5.25 2.1875 C-3.5 0.25 -3.5 0.25 0 0 Z " fill="#C9C9C9" transform="translate(242.5,288.75)"/>
<path d="M0 0 C3.5386994 1.65139305 4.81070153 2.71605229 7 6 C7 6.99 7 7.98 7 9 C0.4 9 -6.2 9 -13 9 C-12 4 -12 4 -9.875 1.6875 C-6.2426172 -0.44455077 -4.15582055 -0.51947757 0 0 Z " fill="#F8F8F8" transform="translate(262,243)"/>
<path d="M0 0 C1.175625 0.04125 2.35125 0.0825 3.5625 0.125 C4.5525 0.125 5.5425 0.125 6.5625 0.125 C6.5625 4.085 6.5625 8.045 6.5625 12.125 C5.5725 12.125 4.5825 12.125 3.5625 12.125 C2.5725 12.186875 1.5825 12.24875 0.5625 12.3125 C-2.4375 12.125 -2.4375 12.125 -4.3125 11.0625 C-6.05723477 8.05767901 -5.74585443 5.51689869 -5.4375 2.125 C-3.4375 0.125 -3.4375 0.125 0 0 Z " fill="#B8B8B8" transform="translate(186.4375,288.875)"/>
<path d="M0 0 C2 2 2 2 2.3125 5.4375 C2 9 2 9 0.875 10.9375 C-1.92162472 12.52225401 -3.8493196 12.45947423 -7 12 C-9.35210784 9.88310295 -9.91810953 8.55958485 -10.375 5.4375 C-10 3 -10 3 -8.9375 1.1875 C-5.94449731 -0.646921 -3.42183337 -0.31107576 0 0 Z " fill="#C0C0C0" transform="translate(317,289)"/>
<path d="M0 0 C3.39471203 -0.37033222 5.88907484 -0.60921702 8.9375 1.0625 C10.60921702 4.11092516 10.37033222 6.60528797 10 10 C6.53076119 12.31282587 5.07794425 12.42478586 1 12 C-0.875 10.875 -0.875 10.875 -2 9 C-2.42478586 4.92205575 -2.31282587 3.46923881 0 0 Z " fill="#5F5F5F" transform="translate(264,289)"/>
<path d="M0 0 C2.5625 0.1875 2.5625 0.1875 4.5625 2.1875 C4.1875 4.8125 4.1875 4.8125 3.5625 7.1875 C-1.1875 8.3125 -1.1875 8.3125 -3.4375 7.1875 C-3.48004356 5.18795254 -3.47830783 3.18708364 -3.4375 1.1875 C-2.4375 0.1875 -2.4375 0.1875 0 0 Z " fill="#141414" transform="translate(189.4375,226.8125)"/>
<path d="M0 0 C3.63 0 7.26 0 11 0 C11 1.32 11 2.64 11 4 C7.5647952 6.29013653 6.014669 6.17842973 2 6 C1.34 4.02 0.68 2.04 0 0 Z " fill="#C4C4C4" transform="translate(263,295)"/>
<path d="M0 0 C0.99 0.33 1.98 0.66 3 1 C2.67 4.63 2.34 8.26 2 12 C1.34 12 0.68 12 0 12 C-0.33 10.68 -0.66 9.36 -1 8 C-1.66 8 -2.32 8 -3 8 C-3 7.01 -3 6.02 -3 5 C-4.98 5 -6.96 5 -9 5 C-9 4.67 -9 4.34 -9 4 C-6.36 4 -3.72 4 -1 4 C-0.67 2.68 -0.34 1.36 0 0 Z " fill="#7A7A7A" transform="translate(300,289)"/>
<path d="M0 0 C1.093125 0.0825 2.18625 0.165 3.3125 0.25 C3.3125 0.58 3.3125 0.91 3.3125 1.25 C1.0025 1.91 -1.3075 2.57 -3.6875 3.25 C-3.749375 4.19875 -3.81125 5.1475 -3.875 6.125 C-4.143125 7.15625 -4.41125 8.1875 -4.6875 9.25 C-7.25 10.625 -7.25 10.625 -9.6875 11.25 C-9.6875 9.27 -9.6875 7.29 -9.6875 5.25 C-8.6975 4.92 -7.7075 4.59 -6.6875 4.25 C-6.275 3.569375 -5.8625 2.88875 -5.4375 2.1875 C-3.6875 0.25 -3.6875 0.25 0 0 Z " fill="#6D6D6D" transform="translate(242.6875,288.75)"/>
<path d="M0 0 C0 0.66 0 1.32 0 2 C-0.99 2.33 -1.98 2.66 -3 3 C-3.33 6.3 -3.66 9.6 -4 13 C-4.66 13 -5.32 13 -6 13 C-6 9.04 -6 5.08 -6 1 C-2 0 -2 0 0 0 Z " fill="#767676" transform="translate(180,288)"/>
<path d="M0 0 C1.98 0 3.96 0 6 0 C6.33 1.32 6.66 2.64 7 4 C4.03 4 1.06 4 -2 4 C-1.34 2.68 -0.68 1.36 0 0 Z " fill="#F9F9F9" transform="translate(265,290)"/>
</svg>
