<svg id="Layer_1" data-name="Layer 1" xmlns="http://www.w3.org/2000/svg" viewBox="0 0 406 55.35"><title>Techcombank logo - Brandlogos.net</title><polygon points="378.33 0 364.5 13.82 364.5 13.86 378.33 27.68 364.5 41.5 364.5 41.53 378.33 55.35 406 27.68 378.33 0" style="fill:#ec1c24"/><polygon points="350.66 0 364.47 13.82 364.47 13.86 350.66 27.68 364.47 41.5 364.47 41.53 350.66 55.35 322.98 27.68 350.66 0" style="fill:#ec1c24"/><path d="M187.19,397.78V376.71H181v-6.53h19.9v6.53h-6.19v21.07Zm17.38,0v-27.6h16.92v6h-9.58V381h9v5.92h-9v4.65h9.58v6.19Zm41.91-26.54v8.24A11.51,11.51,0,0,0,243.4,377a7,7,0,0,0-3.29-.8,6.79,6.79,0,0,0-5.25,2.21,8.25,8.25,0,0,0-2,5.78,7.81,7.81,0,0,0,2,5.52,7.25,7.25,0,0,0,8.51,1.37,11.25,11.25,0,0,0,3.08-2.54v8.25a18.82,18.82,0,0,1-3.57,1.3,16,16,0,0,1-7.76-.12,11.69,11.69,0,0,1-3.52-1.64,13.7,13.7,0,0,1-4.71-5.2,15.25,15.25,0,0,1-1.62-7.11,15.46,15.46,0,0,1,1-5.76,14,14,0,0,1,3.11-4.71,12.74,12.74,0,0,1,4.42-3,14.29,14.29,0,0,1,5.47-1,15.45,15.45,0,0,1,3.59.42,18.82,18.82,0,0,1,3.57,1.3m4.24,26.54V370.18h7.52v10.73h10V370.18h7.54v27.6H268.3V386.54h-10v11.24h-7.52Zm51-26.54v8.24a10.93,10.93,0,0,0-3.08-2.52,6.92,6.92,0,0,0-3.28-.8,6.78,6.78,0,0,0-5.25,2.21,8.21,8.21,0,0,0-2,5.78,7.76,7.76,0,0,0,2.05,5.52,7.22,7.22,0,0,0,8.49,1.37,10.69,10.69,0,0,0,3.08-2.54v8.25a18.25,18.25,0,0,1-3.56,1.3,15.94,15.94,0,0,1-7.75-.12,11.86,11.86,0,0,1-3.53-1.64,13.86,13.86,0,0,1-4.71-5.2,15.38,15.38,0,0,1-1.62-7.11,15.66,15.66,0,0,1,1-5.76,14.07,14.07,0,0,1,3.1-4.71,13.06,13.06,0,0,1,4.43-3,14.32,14.32,0,0,1,5.47-1,15.43,15.43,0,0,1,3.58.42,18.48,18.48,0,0,1,3.56,1.3m32.6,12.8A14.07,14.07,0,0,1,330,394.25a15,15,0,0,1-4.83,3.14,14.84,14.84,0,0,1-11.31,0,14.55,14.55,0,0,1-4.77-3.14,14,14,0,0,1-3.24-4.68,14.75,14.75,0,0,1,0-11.13,13.88,13.88,0,0,1,3.24-4.68,14.88,14.88,0,0,1,4.77-3.14,15.14,15.14,0,0,1,11.33,0,14.9,14.9,0,0,1,4.8,3.14,14.57,14.57,0,0,1,3.18,4.67,14.15,14.15,0,0,1,1.1,5.59m-14.75,8.11a6.65,6.65,0,0,0,5.17-2.3,9.21,9.21,0,0,0,0-11.62,6.91,6.91,0,0,0-10.31,0,8.42,8.42,0,0,0-2.05,5.81,8.53,8.53,0,0,0,2,5.82,6.63,6.63,0,0,0,5.21,2.29m51.13,5.63h-7L362,385.82c-.11-.83-.21-1.77-.31-2.8s-.19-2.15-.27-3.38a32.11,32.11,0,0,1-1,4.39c-.12.37-.19.62-.24.8l-3.75,12.94h-5l-3.76-12.94c-.05-.18-.13-.44-.22-.8a29.71,29.71,0,0,1-1-4.36c-.08,1-.17,2.08-.26,3.1s-.24,2.06-.36,3.07l-1.62,11.94h-7l4.27-27.6h7.44L353,384.42c0,.09.08.26.14.49a18.16,18.16,0,0,1,.75,3.26,11.15,11.15,0,0,1,.28-1.63c.14-.58.32-1.32.57-2.15l4.21-14.2h7.46l4.24,27.6Z" transform="translate(-181 -356.33)" style="fill:#ec1c24"/><path d="M381.67,381.25h1.5a8.06,8.06,0,0,0,3.84-.63,2.27,2.27,0,0,0,1-2.12,2.47,2.47,0,0,0-1-2.2,7.71,7.71,0,0,0-3.77-.63h-1.63v5.57Zm-7,16.58V370.2h7.57a47.66,47.66,0,0,1,6.53.3,10,10,0,0,1,3.2,1,6,6,0,0,1,2.33,2.28,6.64,6.64,0,0,1,.8,3.3,5.58,5.58,0,0,1-1.19,3.75A7.63,7.63,0,0,1,390.1,383a6.64,6.64,0,0,1,4.6,2.08,7,7,0,0,1,1.67,4.91,7.91,7.91,0,0,1-.93,3.89,6.38,6.38,0,0,1-2.67,2.6,11,11,0,0,1-3.48,1.07,48.73,48.73,0,0,1-6.8.33h-7.8Zm7-5.64h2.65a7.75,7.75,0,0,0,3.79-.68,2.42,2.42,0,0,0,1.12-2.23,2.7,2.7,0,0,0-1-2.42,7.23,7.23,0,0,0-3.77-.7h-2.76v6Zm26.54-4.7h7.49l-2.82-9.1c-.08-.28-.2-.73-.35-1.34s-.35-1.41-.6-2.38c-.15.68-.31,1.33-.48,1.94s-.31,1.2-.48,1.78l-2.77,9.1Zm-10.55,10.34,9.53-27.63h9.44l9.55,27.63h-7.5l-1.4-5h-10.7l-1.44,5h-7.48Zm31.16,0V370.2h7.26l10.44,14.22a17.78,17.78,0,0,1,1,1.74c.46.88,1,1.91,1.51,3.13-.15-1.14-.25-2.17-.33-3.07s-.11-1.67-.11-2.36V370.21h7.24v27.63h-7.24l-10.44-14.27a17.85,17.85,0,0,1-1-1.74c-.45-.88-.95-1.9-1.49-3.09.14,1.16.26,2.18.33,3.08s.1,1.68.1,2.38v13.64h-7.26Zm32.93,0V370.2h7.45v12.54L478,370.2h8.77l-10.21,13.48,11.1,14.15H478.2l-9-12.41v12.41h-7.44Z" transform="translate(-181 -356.33)" style="fill:#061922"/></svg>