<?xml version="1.0" encoding="utf-8"?>
<!-- Generator: Adobe Illustrator 25.0.0, SVG Export Plug-In . SVG Version: 6.00 Build 0)  -->
<svg version="1.1" id="Layer_1" xmlns="http://www.w3.org/2000/svg" xmlns:xlink="http://www.w3.org/1999/xlink" x="0px" y="0px"
	 viewBox="0 0 500 300" style="enable-background:new 0 0 500 300;" xml:space="preserve">
<style type="text/css">
	.st0{fill-rule:evenodd;clip-rule:evenodd;fill:url(#SVGID_1_);}
	.st1{fill-rule:evenodd;clip-rule:evenodd;fill:url(#SVGID_2_);}
	.st2{fill-rule:evenodd;clip-rule:evenodd;fill:#004522;}
</style>
<g>
	<g>
		<linearGradient id="SVGID_1_" gradientUnits="userSpaceOnUse" x1="406.6553" y1="138.0706" x2="330.6566" y2="84.8558">
			<stop  offset="0" style="stop-color:#006840"/>
			<stop  offset="0.4" style="stop-color:#007A48"/>
			<stop  offset="1" style="stop-color:#86C440"/>
		</linearGradient>
		<path class="st0" d="M357.3,79.8c-6.7,1.4-9.1,4.4-8.9,8.8c0.3,6.1,7.1,17.8,10.3,23c5.6,9.1,12.3,17.3,19.7,24.9
			c6,5.9,9.8,7.2,16.2-1.5c5.5-7.2,10.5-14.4,14.9-23.3c1.9-3.9,3.7-8.2,5.2-13c1.7-5.6,1.1-10.6-4.4-14.3c5.3,2.6,7.6,7.3,8,12.6
			c0.3,5.1-1.2,10.6-2.4,14.7c-2.9,10.1-6.6,20.4-11.3,29.5c-3.5,6.9-8,15.3-12.5,21.5c-9.9,13.7-19.5,9.3-30.7,0
			c-7.1-5.9-13.9-13.3-19.8-21.4c-5.9-8.2-12.4-20.3-16.3-29.6c-5.3-12.8-1.2-19.3,5.3-23.4C337.9,83.5,348.6,81,357.3,79.8z"/>
		<linearGradient id="SVGID_2_" gradientUnits="userSpaceOnUse" x1="358.9871" y1="79.3108" x2="403.9597" y2="110.8009">
			<stop  offset="0" style="stop-color:#006840"/>
			<stop  offset="0.3" style="stop-color:#007A48"/>
			<stop  offset="1" style="stop-color:#86C440"/>
		</linearGradient>
		<path class="st1" d="M357.1,108.9c10.4-1.5,37.3-3.2,46.7,1.7c3.2,1.6,3.2,3.8,2.9,6.4c0.9-1.7,1.9-3.5,2.8-5.3
			c1.9-3.9,3.7-8.2,5.2-13c1.7-5.6,1.1-10.6-4.4-14.3l0,0c-2-1.1-4.4-1.8-6.5-2.5c-6.2-1.8-13.1-2.5-20.1-3
			c-2.9-0.2-5.9-0.2-8.9-0.2c-5.5,0-11.5,0.4-17.5,1.2c-6.7,1.4-9.1,4.4-8.9,8.8C348.7,93.8,353.6,103,357.1,108.9z"/>
	</g>
	<path class="st2" d="M330,221.1c5.4-0.7,10-3.4,11.5-11.6c1-5.2,0.8-13.6-0.6-18.6c-0.7-2.3-1.7-4.2-3.2-5.5
		c-2.5-2.1-5.3-2.5-7.8-2.6c-4.2-0.2-6.4,0.6-9.5,3c-0.6,0.5-1.1,0.7-1.1-0.1l-0.1-17.4l-9.7,0.2l0,50
		C313.7,221.3,325.1,221.7,330,221.1L330,221.1z M70.9,220.2c2,0,1.6,0.2,2.9-1.5c8.4-11.5,16.3-36.1,16.2-49.8
		c-3.9-0.2-7.9,0.5-11.8,1.4c-3.8,22.5-7.1,28.4-13.2,39.9l0,0l0,0c-6.1-11.5-9.4-17.4-13.2-39.9c-4-1-7.9-1.6-11.8-1.4
		c-0.1,13.7,7.8,38.3,16.2,49.8c1.2,1.7,0.8,1.5,2.9,1.5H70.9L70.9,220.2z M348.6,184.7l0.9,8.8c3.8-0.4,7-1.4,11-1.7
		c6-0.2,9.9-0.4,9.7,4c-4.5,0-9.1,0-13.8,0c-5.7,0-10.4,2.8-9.8,14.3c0.8,13.9,17.3,12.9,24.8,7.3v3.1h8.8
		c-0.2-14.2,0.8-29.1-1.8-33.1C373.5,179.9,357.6,182.7,348.6,184.7L348.6,184.7z M142.3,219c-0.3-2.9-0.6-5.7-1-8.6
		c-4,0.7-10.8,1.7-14.8,1.6c-4.6-0.1-6.3-2.4-6.3-8.9c1.5,1.7,3.5,2.8,6.1,2.9c6,0.1,11.7,0.2,17.6-0.1c0.3-11,1.2-20.5-9.7-22.8
		c-4.4-0.9-10.3-0.9-14.6,0.3c-4.6,1.4-6.9,3.6-8.2,8.2c-2.5,8.6-1.8,21.3,3.7,26.2C121.5,223.4,134.3,221.4,142.3,219L142.3,219z
		 M124.7,191.5h4.8c2.4,0,4.4,2,4.4,4.4v1.9h-13.6v-1.9C120.3,193.5,122.3,191.5,124.7,191.5L124.7,191.5z M433.6,220.6l0.3-16.1
		c0-1,0.9,0.3,1.1,0.7c3.2,5.3,6.1,9.4,10.9,14.1c1.3,1.3,1.6,1.2,4,1.2H460c-7.4-6.1-11.5-11-15.5-18.4c-0.8-1.7-0.8-1.5,0.4-3.1
		c1.5-1.7,3.3-4,5.4-6.3l8.6-10.2c0-0.1,0.1-0.2,0.1-0.2h-9.2c-1.7,0-1.6-0.3-2.8,1c-3.5,3.8-7.5,8.2-10.7,11.8
		c-0.4,0.4-0.9,0.8-1.3,1.1c-1.3,1-1.1,0.7-1.1-0.7l-0.1-27.3l-9.8,0.1l-0.1,52.3H433.6L433.6,220.6z M206.6,219.3l-0.9-8.5
		c-4.4,0.4-9.1,1.6-13.8,1.1c-4.7-0.5-5.3-3-5.3-6.8c0-2.3-0.1-4.9,0-7.2c0.2-3.1,1.1-5.1,5.3-5.6c4.7-0.5,9.4,0.7,13.8,1.1l0.9-8.5
		c-16.8-4-27.3-2-29.6,11c-0.5,2.7-0.3,11.7,0.4,14.3C180.3,221.5,190.6,223.1,206.6,219.3L206.6,219.3z M153.8,182.9
		c-2.1,0-4.1,0-6.1,0c0,3,0,6-0.1,9c2.1,0,4.1,0,6.2,0c0,3.1,0,6.3,0,9.4c0,3.2,0,6.3,0,8.9c0,3.8,0.8,7.1,2.9,8.8
		c0.9,0.7,2.2,1.1,3.8,1.3c3.8,0.4,8.6,0.2,11.8-0.8c-0.1-2.6-0.2-5.2-0.3-7.8c-3.8,0.4-8.4,1.2-8.4-0.7c0-6.6,0-12.4,0-19
		c3,0,5.9,0,8.9,0c0-3,0-6,0-9c-3,0-5.9,0-8.9,0c0-3,0-6,0-9c-3.3,0-6.6,0-9.8,0C153.8,176.9,153.8,179.9,153.8,182.9L153.8,182.9z
		 M93.8,220.6l9.6,0.2l0.3-37.7l-9.9,0L93.8,220.6L93.8,220.6z M224.1,182.4h8.6c6.7,0,12.2,5.5,12.2,12.2V209
		c0,6.7-5.5,12.2-12.2,12.2h-8.6c-6.7,0-12.2-5.5-12.2-12.2v-14.4C211.9,187.9,217.4,182.4,224.1,182.4L224.1,182.4z M225.9,191.5
		c-2.4,0-4.4,2-4.4,4.4v11.7c0,2.4,2,4.4,4.4,4.4h4.8c2.4,0,4.4-2,4.4-4.4v-11.7c0-2.4-2-4.4-4.4-4.4H225.9L225.9,191.5z
		 M260.8,220.6c0.1-9.6,0.2-19.2,0.3-28.8c2.4,0,4.8,0,7.2,0c1.9,0,3.8,1.2,3.8,3.3v1.3l0,24.2h9.6l0.3-28.9c2.6,0,5.2,0,7.9,0
		c2.3,0,3.8,1.3,3.8,3.5l0,25.3h9.6l0.3-27.3c0.1-5.8-3.1-10.6-9.7-10.5c-2.1,0-4.2,0-6.3,0.1c-3.1,0-4.8,0.6-6.8,2.6
		c-1.4,1.5-0.7,1.5-2.1,0.1c-1.9-2.1-4.3-2.8-7.2-2.8c-1.5,0-2.9,0-4.4,0c-2.7,0.1-4.4,1-6.4,3c-1.6,1.6-1.4,2.2-1.4-0.4
		c0-0.8,0-1.6,0-2.4c0,0,0,0,0,0l0,0c-2.7,0-5.5,0-8.2,0c0,12.5,0,25,0,37.5H260.8L260.8,220.6z M396.1,220.6
		c0.1-9.6,0.2-19.2,0.3-28.8c2.4,0,4.9,0,7.3,0c2.1,0,3.8,1.3,3.8,3.5c0,8.4,0,16.9,0,25.4c3.3,0,6.5,0,9.8,0
		c0.1-8.4,0.2-16.8,0.2-25.2c0.1-6.7-2.6-12.6-10.5-12.6c-1.5,0-3,0-4.5,0c-2.6,0.1-4.3,0.9-6.3,2.8c-1.7,1.6-1.6,2.5-1.6-0.1V183
		l-8.4,0c0,12.5,0,25.1,0.1,37.6C389.6,220.6,392.9,220.6,396.1,220.6L396.1,220.6z M359.7,204.3c3.6,0,7.1,0,10.7,0
		c0,1.9,0,3.7,0,5.6c0,2.3-6.7,2.4-11,2.3c-3.1-0.1-2.8,0-2.9-2.8c0-1,0-2.1,0-3.1C356.5,204.2,356.9,204.3,359.7,204.3L359.7,204.3
		z M332,197.6v5.2v5.2c0,2.4-2,4.4-4.4,4.4c-1.6,0-3.3,0-4.9,0c-3.4,0-3.5,0-3.5-4.9v-4.7v-6.4c0-4.9,0-4.9,3.5-4.9
		c1.6,0,3.3,0,4.9,0c2.4,0,4.4,2,4.4,4.4V197.6z"/>
</g>
</svg>
